# xmcd
#
# Track frame offsets:
#	150
#	16306
#	30093
#	47979
#	66292
#	86676
#	101658
#	122504
#	143290
#	161730
#	188728
#	205190
#	222451
#	244101
#	262326
#	281376
#	300702
#
# Disc length: 4299 seconds
#
# Revision: 1
# Processed by: cddbd v1.5.2PL0 Copyright (c) Steve Scherf et al.
# Submitted via: audiograbber 1.83.01
#
DISCID=ee10c911
DTITLE=Sugarland - Love On The Inside 
DYEAR=2008
DGENRE=Country
TTITLE0=All I Want To Do
TTITLE1=It Happens
TTITLE2=We Run
TTITLE3=Joey
TTITLE4=Love
TTITLE5=Genevieve
TTITLE6=Already Gone
TTITLE7=Keep You
TTITLE8=Take Me As I Am
TTITLE9=What I'd Give
TTITLE10=Steve Earle
TTITLE11=Very Last Country Song
TTITLE12=Fall Into Me
TTITLE13=Operation: Working Vacation
TTITLE14=Wishing
TTITLE15=Life In A Northern Town (Feat.
TTITLE16=Come On Get Higher (Live)
EXTD=
EXTT0=
EXTT1=
EXTT2=
EXTT3=
EXTT4=
EXTT5=
EXTT6=
EXTT7=
EXTT8=
EXTT9=
EXTT10=
EXTT11=
EXTT12=
EXTT13=
EXTT14=
EXTT15=
EXTT16=
PLAYORDER=
